<mxfile host="app.diagrams.net" agent="Mozilla/5.0 (Windows NT 10.0; Win64; x64) AppleWebKit/537.36 (KHTML, like Gecko) Chrome/130.0.0.0 Safari/537.36" version="24.8.4">
  <diagram name="Page-1" id="fqws8vtDoccsGUvo3YXt">
    <mxGraphModel dx="875" dy="435" grid="1" gridSize="10" guides="1" tooltips="1" connect="1" arrows="1" fold="1" page="1" pageScale="1" pageWidth="850" pageHeight="1100" math="0" shadow="0">
      <root>
        <mxCell id="0" />
        <mxCell id="1" parent="0" />
        <mxCell id="PEetgeq7qVaKz42KIn83-3" value="" style="edgeStyle=orthogonalEdgeStyle;rounded=0;orthogonalLoop=1;jettySize=auto;html=1;" edge="1" parent="1" source="PEetgeq7qVaKz42KIn83-1" target="PEetgeq7qVaKz42KIn83-2">
          <mxGeometry relative="1" as="geometry" />
        </mxCell>
        <mxCell id="PEetgeq7qVaKz42KIn83-1" value="Початок" style="ellipse;whiteSpace=wrap;html=1;" vertex="1" parent="1">
          <mxGeometry x="220" y="40" width="120" height="50" as="geometry" />
        </mxCell>
        <mxCell id="PEetgeq7qVaKz42KIn83-5" value="" style="edgeStyle=orthogonalEdgeStyle;rounded=0;orthogonalLoop=1;jettySize=auto;html=1;" edge="1" parent="1" source="PEetgeq7qVaKz42KIn83-2" target="PEetgeq7qVaKz42KIn83-4">
          <mxGeometry relative="1" as="geometry" />
        </mxCell>
        <mxCell id="PEetgeq7qVaKz42KIn83-2" value="Ввід розмірів матриці" style="shape=parallelogram;perimeter=parallelogramPerimeter;whiteSpace=wrap;html=1;fixedSize=1;" vertex="1" parent="1">
          <mxGeometry x="220" y="120" width="120" height="60" as="geometry" />
        </mxCell>
        <mxCell id="PEetgeq7qVaKz42KIn83-7" value="" style="edgeStyle=orthogonalEdgeStyle;rounded=0;orthogonalLoop=1;jettySize=auto;html=1;" edge="1" parent="1" source="PEetgeq7qVaKz42KIn83-4" target="PEetgeq7qVaKz42KIn83-6">
          <mxGeometry relative="1" as="geometry" />
        </mxCell>
        <mxCell id="PEetgeq7qVaKz42KIn83-4" value="Ввід координат&lt;div&gt;вершини&lt;/div&gt;" style="shape=parallelogram;perimeter=parallelogramPerimeter;whiteSpace=wrap;html=1;fixedSize=1;" vertex="1" parent="1">
          <mxGeometry x="220" y="220" width="120" height="60" as="geometry" />
        </mxCell>
        <mxCell id="PEetgeq7qVaKz42KIn83-9" value="" style="edgeStyle=orthogonalEdgeStyle;rounded=0;orthogonalLoop=1;jettySize=auto;html=1;" edge="1" parent="1" source="PEetgeq7qVaKz42KIn83-6" target="PEetgeq7qVaKz42KIn83-8">
          <mxGeometry relative="1" as="geometry" />
        </mxCell>
        <mxCell id="PEetgeq7qVaKz42KIn83-6" value="Розраховуємо максимальну висоту гори" style="rounded=1;whiteSpace=wrap;html=1;" vertex="1" parent="1">
          <mxGeometry x="225" y="310" width="110" height="50" as="geometry" />
        </mxCell>
        <mxCell id="PEetgeq7qVaKz42KIn83-11" value="" style="edgeStyle=orthogonalEdgeStyle;rounded=0;orthogonalLoop=1;jettySize=auto;html=1;" edge="1" parent="1" source="PEetgeq7qVaKz42KIn83-8" target="PEetgeq7qVaKz42KIn83-10">
          <mxGeometry relative="1" as="geometry" />
        </mxCell>
        <mxCell id="PEetgeq7qVaKz42KIn83-8" value="Заповнюємо матрицю значеннями" style="rounded=1;whiteSpace=wrap;html=1;" vertex="1" parent="1">
          <mxGeometry x="225" y="400" width="110" height="50" as="geometry" />
        </mxCell>
        <mxCell id="PEetgeq7qVaKz42KIn83-13" value="" style="edgeStyle=orthogonalEdgeStyle;rounded=0;orthogonalLoop=1;jettySize=auto;html=1;" edge="1" parent="1" source="PEetgeq7qVaKz42KIn83-10" target="PEetgeq7qVaKz42KIn83-12">
          <mxGeometry relative="1" as="geometry" />
        </mxCell>
        <mxCell id="PEetgeq7qVaKz42KIn83-10" value="Виводимо&amp;nbsp;&lt;div&gt;матрицю&lt;/div&gt;" style="shape=parallelogram;perimeter=parallelogramPerimeter;whiteSpace=wrap;html=1;fixedSize=1;" vertex="1" parent="1">
          <mxGeometry x="220" y="480" width="120" height="60" as="geometry" />
        </mxCell>
        <mxCell id="PEetgeq7qVaKz42KIn83-12" value="Кінець" style="ellipse;whiteSpace=wrap;html=1;" vertex="1" parent="1">
          <mxGeometry x="220" y="570" width="120" height="50" as="geometry" />
        </mxCell>
      </root>
    </mxGraphModel>
  </diagram>
</mxfile>
